<?xml version="1.0" encoding="utf-8"?>
<!-- Generated by IcoMoon.io -->
<!DOCTYPE svg PUBLIC "-//W3C//DTD SVG 1.1//EN" "http://www.w3.org/Graphics/SVG/1.1/DTD/svg11.dtd">
<svg version="1.1" xmlns="http://www.w3.org/2000/svg" xmlns:xlink="http://www.w3.org/1999/xlink" width="512" height="512" viewBox="0 0 512 512">
<g>
</g>
	<path d="M244.9 147.251c1.157 30.894 6.983 63.006 57.282 57.579 9.523-1.014 15.821-18.196 19.876-36.71-18.575-13.424-41.36-21.422-66.069-21.422-3.717 0-7.424 0.205-11.090 0.553z" fill="#000000" />
	<path d="M292.024 232.837c0 5.089-4.137 9.185-9.195 9.185v0c-5.058 0-9.165-4.096-9.165-9.185v-2.54c0-5.069 4.096-9.155 9.165-9.155v0c5.058 0 9.195 4.076 9.195 9.155v2.54z" fill="#000000" />
	<path d="M306.115 249.62c0 11.3-7.395 20.459-16.517 20.459s-16.517-9.16-16.517-20.459c0-11.299 7.395-20.459 16.517-20.459 9.122 0 16.517 9.16 16.517 20.459z" fill="#000000" />
	<path d="M71.301 216.494c-4.782 0-8.674 3.881-8.674 8.663v1.536c0 4.782 3.891 8.673 8.674 8.673 4.772 0 8.663-3.891 8.663-8.673v-1.536c0-4.782-3.891-8.663-8.663-8.663z" fill="#000000" />
	<path d="M476.58 154.132l1.639 21.401c0 0-22.498-38.277-39.024-37.55-27.115 1.229-15.524 14.551-10.537 31.539 5.099 17.305-27.003 40.53-46.541-30.044-19.517-70.564-53.483-18.248-53.483-18.248s-1.659 24.443-6.584 46.889c28.478 20.562 47.063 53.924 47.063 91.72 0 62.484-50.617 113.142-113.121 113.142-62.505 0-113.142-50.658-113.142-113.142 0-58.737 44.759-107.008 102.042-112.589-0.512-14.070-0.051-27.924-2.406-37.796-7.486-31.519-59.587-25.406-48.046 28.529 8.478 39.66-44.411 52.019-58.563 19.528-14.695-33.71-34.55-29.635-46.541 22.518-14.756 64.154-51.067-10.506-51.067-10.506l-1.372-18.32c-16.282 32.748-25.447 69.612-25.447 108.636 0 135.045 109.466 244.541 244.552 244.541 135.065 0 244.562-109.496 244.562-244.542 0-37.858-8.601-73.707-23.982-105.707zM79.964 226.693c0 4.782-3.891 8.673-8.663 8.673-4.782 0-8.674-3.891-8.674-8.673v-1.536c0-4.782 3.891-8.663 8.674-8.663 4.772 0 8.663 3.881 8.663 8.663v1.536zM254.188 484.137v-20.685c79.514 0 154.399-53.883 174.172-125.337l19.917 5.499c-22.139 80.128-105.575 140.524-194.089 140.524z" fill="#000000" />
	<path d="M71.865 105.769c46.039-55.87 113.93-87.91 186.245-87.91 73.625 0 142.264 32.993 188.365 90.511l7.977-6.4c-48.036-59.955-119.603-94.352-196.342-94.352-75.387 0-146.155 33.413-194.15 91.648l7.906 6.502z" fill="#000000" />
</svg>
